<svg id="icon" xmlns="http://www.w3.org/2000/svg" viewBox="0 0 20 20"><title>工作區域 30</title><path d="M14.5,5H14A2.5,2.5,0,0,0,11.5,3h-3A2.5,2.5,0,0,0,6.05,5H5.5A3.5,3.5,0,0,0,2,8.5v5A3.5,3.5,0,0,0,5.5,17h9A3.5,3.5,0,0,0,18,13.5v-5A3.5,3.5,0,0,0,14.5,5Zm-6-1h3a1.51,1.51,0,0,1,1.41,1H7.09A1.51,1.51,0,0,1,8.5,4Zm-3,2h9A2.5,2.5,0,0,1,17,8.5v.72A11.37,11.37,0,0,1,10.89,11H9.11A11.37,11.37,0,0,1,3,9.22V8.5A2.5,2.5,0,0,1,5.5,6ZM11,12a1,1,0,0,1-1.9,0H11Zm3.55,4h-9A2.5,2.5,0,0,1,3,13.5V10.39A12.38,12.38,0,0,0,8,12a2,2,0,0,0,4,0,12.38,12.38,0,0,0,5-1.56V13.5A2.5,2.5,0,0,1,14.5,16Z"/></svg>