<svg id="icon" xmlns="http://www.w3.org/2000/svg" viewBox="0 0 20 20"><title>工作區域 27</title><path d="M13.5,18h-7A3.5,3.5,0,0,1,3,14.5v-9A3.5,3.5,0,0,1,6.5,2h4.17a2.49,2.49,0,0,1,1.77.73l3.83,3.83A2.49,2.49,0,0,1,17,8.33V14.5A3.5,3.5,0,0,1,13.5,18ZM6.5,3A2.5,2.5,0,0,0,4,5.5v9A2.5,2.5,0,0,0,6.5,17h7A2.5,2.5,0,0,0,16,14.5V8.33a1.5,1.5,0,0,0-.44-1.06L11.73,3.44A1.5,1.5,0,0,0,10.67,3Z"/><path d="M10.5,8h-4a.5.5,0,0,1,0-1h4a.5.5,0,0,1,0,1Z"/><path d="M13.5,11h-7a.5.5,0,0,1,0-1h7a.5.5,0,0,1,0,1Z"/><path d="M8.5,14h-2a.5.5,0,0,1,0-1h2a.5.5,0,0,1,0,1Z"/></svg>