<svg id="icon" xmlns="http://www.w3.org/2000/svg" viewBox="0 0 20 20"><title>工作區域 33</title><path d="M17.25,2.75a2.75,2.75,0,0,0-2-.75,2.54,2.54,0,0,0-1.75.61l-9.92,10a4.39,4.39,0,0,0-1.13,1.94l-.43,1.53a1.47,1.47,0,0,0,0,.83A1.55,1.55,0,0,0,3.56,18,1.52,1.52,0,0,0,4,17.94l1.51-.42a4.46,4.46,0,0,0,2-1.17l9.89-9.94A2.79,2.79,0,0,0,17.25,2.75Zm-12,13.81L3.71,17l-.15,0A.56.56,0,0,1,3,16.6a.45.45,0,0,1,0-.28l.43-1.53a4.19,4.19,0,0,1,.29-.69l2.17,2.16A3.52,3.52,0,0,1,5.22,16.56ZM16.67,5.7l-9.89,10,0,0-2.4-2.41,9.9-9.95a1.64,1.64,0,0,1,1-.32,1.78,1.78,0,0,1,1.25.46A1.69,1.69,0,0,1,17,4.67,1.54,1.54,0,0,1,16.67,5.7Z"/><path d="M17.5,17h-5a.5.5,0,0,0,0,1h5a.5.5,0,0,0,0-1Z"/></svg>