<svg id="icon" xmlns="http://www.w3.org/2000/svg" viewBox="0 0 24 24"><title>工作區域 21</title><path d="M19.58,4a1.2,1.2,0,0,1,1.2,1.2V6.38a1.21,1.21,0,0,1-.42.91l-6.93,5.94a1,1,0,0,0-.34.76V19.9c0,.07-.06.09-.11.09h0l-2.19-1.1a.1.1,0,0,1-.06-.09V14a1,1,0,0,0-.35-.76L3.42,7.29A1.17,1.17,0,0,1,3,6.38V5.2A1.2,1.2,0,0,1,4.2,4H19.58m0-1H4.2A2.19,2.19,0,0,0,2,5.2V6.38a2.18,2.18,0,0,0,.77,1.67L9.69,14V18.8a1.09,1.09,0,0,0,.61,1l2.2,1.1A1.07,1.07,0,0,0,13,21a1.1,1.1,0,0,0,1.1-1.1V14L21,8.05a2.18,2.18,0,0,0,.77-1.67V5.2A2.2,2.2,0,0,0,19.58,3Z" fill="#fff"/></svg>