<svg id="icon" xmlns="http://www.w3.org/2000/svg" viewBox="0 0 20 20"><title>工作區域 52</title><path d="M16.73,5.39,14.36,3a2.64,2.64,0,0,0-4,.37L7.46,7a3.7,3.7,0,0,0-4.37.64l-.75.75a.5.5,0,0,0,0,.71l4,4L2.15,17.09A.5.5,0,0,0,2.5,18a.52.52,0,0,0,.35-.14L7,13.75l3.67,3.66a.5.5,0,0,0,.35.15.51.51,0,0,0,.36-.15l.75-.75a3.7,3.7,0,0,0,.64-4.37l3.55-2.83a2.64,2.64,0,0,0,.41-4.07ZM11.43,16l-.41.4L3.4,8.73l.4-.41a2.72,2.72,0,0,1,3.84,0l3.79,3.79A2.72,2.72,0,0,1,11.43,16Zm4.3-7.3L12.2,11.47,8.28,7.55,11.13,4a1.64,1.64,0,0,1,2.52-.25L16,6.1a1.61,1.61,0,0,1,.47,1.32A1.66,1.66,0,0,1,15.73,8.65Z" fill="#606060"/></svg>