<svg id="icon" xmlns="http://www.w3.org/2000/svg" viewBox="0 0 20 20"><title>工作區域 45</title><path d="M16.44,11.06H12.56a.51.51,0,0,0-.5.5.5.5,0,0,0,.5.5h3.88a.51.51,0,0,1,.27.09l-2.54,2.4a6.7,6.7,0,0,1-9.45,0,6.82,6.82,0,0,1-1.58-2.5.49.49,0,0,0-.64-.3.5.5,0,0,0-.3.64,7.69,7.69,0,0,0,12.66,2.88l2.08-2v3.13a.5.5,0,0,0,.5.5.51.51,0,0,0,.5-.5V12.56A1.51,1.51,0,0,0,16.44,11.06Z"/><path d="M3.56,8.94H7.44a.51.51,0,0,0,.5-.5.5.5,0,0,0-.5-.5H3.56a.51.51,0,0,1-.27-.09L5.84,5.46A6.43,6.43,0,0,1,8.33,3.88a6.6,6.6,0,0,1,5.1.27A6.68,6.68,0,0,1,16.86,8a.49.49,0,0,0,.47.34.45.45,0,0,0,.16,0,.51.51,0,0,0,.31-.64A7.69,7.69,0,0,0,8,2.94a7.49,7.49,0,0,0-2.85,1.8l-2.08,2V3.56a.5.5,0,0,0-.5-.5.51.51,0,0,0-.5.5V7.44A1.51,1.51,0,0,0,3.56,8.94Z"/></svg>