<svg id="icon" xmlns="http://www.w3.org/2000/svg" viewBox="0 0 20 20"><title>工作區域 53_1</title><path d="M17.57,9.54a1.33,1.33,0,0,0,.36-1.4,1.37,1.37,0,0,0-1.13-1l-3.63-.51a.41.41,0,0,1-.3-.21L11.25,3.26a1.41,1.41,0,0,0-2.5,0L7.13,6.47a.41.41,0,0,1-.3.21L3.2,7.19a1.37,1.37,0,0,0-1.13,1,1.33,1.33,0,0,0,.36,1.4L5.05,12a.36.36,0,0,1,.11.32l-.62,3.53A1.4,1.4,0,0,0,5.92,17.5a1.32,1.32,0,0,0,.64-.16l3.25-1.66a.42.42,0,0,1,.38,0l3.25,1.66a1.39,1.39,0,0,0,1.48-.12,1.36,1.36,0,0,0,.54-1.33l-.62-3.53A.36.36,0,0,1,15,12Zm-3.72,3,.62,3.52a.35.35,0,0,1-.15.36.41.41,0,0,1-.43,0l-3.24-1.66a1.42,1.42,0,0,0-1.3,0L6.11,16.45a.41.41,0,0,1-.43,0,.35.35,0,0,1-.15-.36l.62-3.52a1.36,1.36,0,0,0-.41-1.23L3.12,8.82A.36.36,0,0,1,3,8.45a.39.39,0,0,1,.32-.27L7,7.67a1.44,1.44,0,0,0,1-.75L9.64,3.71a.41.41,0,0,1,.72,0L12,6.92a1.44,1.44,0,0,0,1,.75l3.63.51a.39.39,0,0,1,.32.27.36.36,0,0,1-.1.37l-2.62,2.49A1.36,1.36,0,0,0,13.85,12.54Z" fill="#606060"/></svg>