<svg id="icon" xmlns="http://www.w3.org/2000/svg" viewBox="0 0 20 20"><title>工作區域 26</title><path d="M17.5,13a.5.5,0,0,1-.5-.5V6.69A3.52,3.52,0,0,0,13.5,3h-6a.5.5,0,0,1,0-1h6A4.5,4.5,0,0,1,18,6.69V12.5A.5.5,0,0,1,17.5,13Z"/><path d="M11.3,18H5.7A3.7,3.7,0,0,1,2,14.3V8.7A3.7,3.7,0,0,1,5.7,5h5.6A3.7,3.7,0,0,1,15,8.7v5.6A3.7,3.7,0,0,1,11.3,18ZM5.7,6A2.7,2.7,0,0,0,3,8.7v5.6A2.7,2.7,0,0,0,5.7,17h5.6A2.7,2.7,0,0,0,14,14.3V8.7A2.7,2.7,0,0,0,11.3,6Z"/><path d="M8.5,13.87a1.47,1.47,0,0,1-1.06-.44L5.19,11.18a.5.5,0,0,1,0-.71.5.5,0,0,1,.7,0l2.26,2.26a.5.5,0,0,0,.7,0l2.26-2.26a.5.5,0,0,1,.7,0,.5.5,0,0,1,0,.71L9.56,13.43A1.47,1.47,0,0,1,8.5,13.87Z"/></svg>