<svg id="icon" xmlns="http://www.w3.org/2000/svg" viewBox="0 0 20 20"><title>工作區域 31</title><path d="M17.5,5H13V4.5A2.5,2.5,0,0,0,10.5,2h-1A2.5,2.5,0,0,0,7,4.5V5H2.5a.5.5,0,0,0,0,1h1L4,14.5A3.5,3.5,0,0,0,7.5,18h5A3.5,3.5,0,0,0,16,14.53L16.47,6h1a.5.5,0,0,0,0-1ZM8,4.5A1.5,1.5,0,0,1,9.5,3h1A1.5,1.5,0,0,1,12,4.5V5H8Zm7,10A2.5,2.5,0,0,1,12.5,17h-5A2.51,2.51,0,0,1,5,14.47L4.53,6H15.47Z"/><path d="M8.5,8a.5.5,0,0,0-.5.5v6a.5.5,0,0,0,1,0v-6A.5.5,0,0,0,8.5,8Z"/><path d="M11.5,9a.5.5,0,0,0-.5.5v4a.5.5,0,0,0,1,0v-4A.5.5,0,0,0,11.5,9Z"/></svg>